<svg version="1.1" id="Layer_1" xmlns="http://www.w3.org/2000/svg" xmlns:xlink="http://www.w3.org/1999/xlink" x="0px" y="0px"
	 width="100%" viewBox="0 0 512 512" enable-background="new 0 0 512 512" xml:space="preserve">
<path fill="#000000" opacity="1.000000" stroke="none" 
	d="
M297.000000,513.000000 
	C199.357040,513.000000 102.214050,512.980408 5.071206,513.084656 
	C1.803866,513.088135 0.894408,512.642944 0.896923,509.072998 
	C1.015247,341.114044 1.016740,173.155014 0.892249,5.196103 
	C0.889469,1.444921 1.840505,0.912952 5.301952,0.914959 
	C173.094299,1.012223 340.886688,1.011428 508.679047,0.919313 
	C512.089050,0.917440 513.114502,1.373309 513.111572,5.177080 
	C512.982422,173.136002 512.985168,341.095032 513.100891,509.053986 
	C513.103333,512.585083 512.256165,513.093811 508.947754,513.088379 
	C438.465332,512.971863 367.982635,513.000000 297.000000,513.000000 
z"/>
<path fill="#FC4F4F" opacity="1.000000" stroke="none" 
	d="
M133.320618,357.216980 
	C123.354424,347.893738 113.811325,338.714142 105.020164,328.726624 
	C99.254303,322.176147 93.172386,315.884644 87.652542,309.115082 
	C77.147049,296.231018 66.996574,283.122711 58.771431,268.561676 
	C50.549824,254.006897 44.588196,238.724091 40.691601,222.477203 
	C36.396267,204.567795 36.129993,186.603043 37.921013,168.401230 
	C40.078094,146.479202 47.670097,126.568428 59.927887,108.515923 
	C76.312729,84.385376 98.704521,68.956062 127.525192,62.804585 
	C135.318405,61.141205 143.236832,60.258713 150.906464,60.287487 
	C176.142456,60.382160 199.395721,66.974625 219.325668,83.653839 
	C237.059235,98.494911 248.633011,117.163483 256.584412,138.607117 
	C259.170624,136.928284 259.239380,133.695023 260.300232,131.140518 
	C266.969025,115.082703 276.202667,100.739677 288.810394,88.771416 
	C304.356964,74.013374 322.680115,64.926857 344.115326,61.890518 
	C362.212738,59.326981 379.887207,60.079815 397.623474,66.005997 
	C410.702393,74.285797 417.742859,87.144127 425.137909,99.508751 
	C436.600952,118.675102 443.503204,139.338440 443.407471,161.995636 
	C443.326935,181.046753 437.675385,198.375977 427.425446,214.260742 
	C413.158356,236.371109 395.234161,255.235779 376.007019,273.102325 
	C346.521149,300.501648 314.451691,324.470978 281.105133,346.844421 
	C269.486755,354.639618 257.192902,361.335602 245.301849,368.675354 
	C232.451874,376.607025 218.659149,378.559235 204.068741,377.261078 
	C186.600662,375.706848 169.514694,372.330017 152.834091,366.787933 
	C145.969772,364.507263 139.518570,361.618652 133.320618,357.216980 
z"/>
<path fill="#D64343" opacity="1.000000" stroke="none" 
	d="
M133.121918,357.312134 
	C137.557983,357.571991 141.388245,360.110260 145.592773,361.631012 
	C168.601791,369.953156 192.164429,375.252777 216.808243,375.072784 
	C223.653183,375.022797 229.953995,373.592010 236.017563,370.522430 
	C261.048767,357.850952 284.259888,342.281036 307.003448,325.977905 
	C337.474335,304.135712 366.592834,280.635101 392.676849,253.638123 
	C407.135559,238.673340 420.756561,222.896683 430.387756,204.203812 
	C445.753357,174.381287 443.622681,144.435806 430.260437,114.695816 
	C422.708862,97.888496 412.696381,82.601006 399.865753,69.257614 
	C399.187592,68.552338 398.726501,67.638336 398.064026,66.505783 
	C409.621765,68.942062 419.815399,74.897606 429.197784,81.902016 
	C440.070282,90.018837 448.984619,100.180702 456.388763,111.685974 
	C465.805695,126.318871 471.394623,142.326721 475.068420,159.204041 
	C476.972046,167.949249 477.757233,176.923019 477.674896,185.631104 
	C477.542450,199.645721 475.992035,213.675888 472.395020,227.450211 
	C465.639252,253.320862 452.637878,275.879639 436.562195,296.793060 
	C428.954773,306.689850 420.709290,316.110657 412.334839,325.423676 
	C401.195953,337.811005 389.226868,349.342377 377.383667,360.991333 
	C363.625763,374.523712 348.904724,387.027466 334.133362,399.466583 
	C313.513245,416.830994 292.133606,433.117523 269.609344,447.951813 
	C261.143188,453.527527 253.865723,454.383423 244.926605,448.293579 
	C227.834518,436.649506 211.192505,424.487640 195.008240,411.614990 
	C173.573090,394.565887 153.108887,376.446686 133.121918,357.312134 
z"/>
<path fill="#FD8383" opacity="1.000000" stroke="none" 
	d="
M139.786270,108.872841 
	C135.126236,136.562515 119.292183,155.637085 95.846687,169.026749 
	C91.046600,171.768082 85.772141,173.258789 80.080238,173.107819 
	C71.254532,172.873718 65.587608,167.460129 64.978706,158.543076 
	C64.202087,147.169769 68.556335,137.270584 74.212639,127.956085 
	C82.462334,114.370934 93.282799,103.204742 107.362961,95.485313 
	C112.225067,92.819679 117.308937,90.923141 122.995689,90.889854 
	C133.046280,90.831001 137.636322,94.556816 139.373718,104.489006 
	C139.602066,105.794426 139.672501,107.127480 139.786270,108.872841 
z"/>
</svg>