<svg version="1.1" id="Layer_1" xmlns="http://www.w3.org/2000/svg" xmlns:xlink="http://www.w3.org/1999/xlink" x="0px" y="0px"
	 width="100%" viewBox="0 0 500 500" enable-background="new 0 0 500 500" xml:space="preserve">
<path fill="#000000" opacity="1.000000" stroke="none" 
	d="
M501.000000,200.000000 
	C501.000000,300.293945 501.000000,400.587921 501.000000,500.940918 
	C334.438141,500.940918 167.876236,500.940918 1.000000,500.940918 
	C1.000000,401.310913 1.000000,301.621490 1.382490,201.273178 
	C2.199673,201.617661 2.732713,202.590637 3.053879,203.629120 
	C6.361343,214.323669 8.716010,225.421570 13.092453,235.656082 
	C25.377548,264.385315 43.837112,289.190491 65.324913,311.573669 
	C80.918907,327.817474 97.545547,343.093994 114.083191,358.400452 
	C128.074844,371.350494 142.560822,383.768768 156.900146,396.340149 
	C169.368118,407.270905 181.926712,418.098419 194.463974,428.949951 
	C209.088852,441.608398 223.736725,454.240326 238.369171,466.890076 
	C244.180649,471.914032 254.371048,473.998199 258.743103,470.621246 
	C263.663544,466.820618 268.289673,462.632050 272.965271,458.522888 
	C281.615814,450.920441 290.117401,443.146210 298.850098,435.640137 
	C309.271057,426.682922 319.928375,418.001099 330.372253,409.070038 
	C338.617371,402.019196 346.690430,394.767273 354.847076,387.612793 
	C368.309418,375.804657 381.858826,364.094086 395.211090,352.162872 
	C402.612274,345.549377 409.688141,338.571747 417.215729,331.822784 
	C418.034851,331.277924 418.548889,330.668488 419.033325,330.034058 
	C419.003754,330.009064 419.033722,330.080505 419.306763,330.025604 
	C419.747284,329.657043 419.914764,329.343414 420.048828,329.022583 
	C420.015411,329.015381 420.030182,329.082123 420.303619,329.027374 
	C420.745270,328.658997 420.913483,328.345398 421.048462,328.023438 
	C421.015198,328.015045 421.032257,328.081482 421.308044,328.029602 
	C421.750153,327.661255 421.916443,327.344757 422.049133,327.021973 
	C422.015503,327.015686 422.027557,327.083008 422.302551,327.028168 
	C422.746124,326.657776 422.914703,326.342224 423.049500,326.021179 
	C423.015686,326.015717 423.026520,326.083374 423.302124,326.028259 
	C423.746216,325.656586 423.914703,325.340027 424.049072,325.019287 
	C424.014954,325.015045 424.023407,325.083313 424.298767,325.027344 
	C424.743835,324.655304 424.913574,324.339294 425.049133,324.019104 
	C425.014954,324.014954 425.023010,324.083344 425.298370,324.028656 
	C425.743500,323.658539 425.913269,323.343140 426.049255,323.021851 
	C426.015503,323.015930 426.026733,323.083496 426.298035,323.024780 
	C426.739990,322.654877 426.910645,322.343628 427.048126,322.023560 
	C427.014954,322.014679 427.033356,322.080841 427.307800,322.029907 
	C427.748230,321.664673 427.914185,321.350342 428.047089,321.025085 
	C428.014038,321.014130 428.035706,321.080292 428.308167,321.027283 
	C428.747131,320.661987 428.913635,320.349701 429.043396,320.020630 
	C429.006653,320.003845 429.062164,320.062561 429.362335,319.996582 
	C430.036621,319.256134 430.410736,318.581635 430.952881,317.612976 
	C435.989532,312.133698 441.087097,307.142029 445.671265,301.716614 
	C451.984222,294.245087 458.194153,286.651642 463.918518,278.727753 
	C469.431396,271.096527 474.721313,263.230621 479.310883,255.021454 
	C488.557343,238.482819 495.904938,221.142944 499.034760,202.260910 
	C499.173828,201.421753 500.321899,200.749832 501.000000,200.000000 
z"/>
<path fill="#F9341C" opacity="1.000000" stroke="none" 
	d="
M501.000000,199.531342 
	C500.321899,200.749832 499.173828,201.421753 499.034760,202.260910 
	C495.904938,221.142944 488.557343,238.482819 479.310883,255.021454 
	C474.721313,263.230621 469.431396,271.096527 463.918518,278.727753 
	C458.194153,286.651642 451.984222,294.245087 445.671265,301.716614 
	C441.087097,307.142029 435.989532,312.133698 430.595551,317.685211 
	C429.734161,318.721924 429.398163,319.392242 429.062164,320.062561 
	C429.062164,320.062561 429.006653,320.003845 428.674011,319.897156 
	C428.239471,320.220428 428.137573,320.650360 428.035706,321.080292 
	C428.035706,321.080292 428.014038,321.014130 427.676453,320.899597 
	C427.237030,321.216980 427.135193,321.648895 427.033356,322.080841 
	C427.033356,322.080841 427.014954,322.014679 426.687439,321.911835 
	C426.248840,322.233826 426.137787,322.658661 426.026733,323.083496 
	C426.026733,323.083496 426.015503,323.015930 425.692261,322.921692 
	C425.253662,323.246063 425.138336,323.664703 425.023010,324.083344 
	C425.023010,324.083344 425.014954,324.014954 424.693848,323.935913 
	C424.256287,324.265686 424.139832,324.674500 424.023407,325.083313 
	C424.023407,325.083313 424.014954,325.015045 423.691650,324.934509 
	C423.254425,325.263794 423.140472,325.673584 423.026520,326.083374 
	C423.026520,326.083374 423.015686,326.015717 422.691589,325.930481 
	C422.254211,326.257843 422.140869,326.670410 422.027557,327.083008 
	C422.027557,327.083008 422.015503,327.015686 421.684082,326.924622 
	C421.245850,327.249542 421.139038,327.665497 421.032257,328.081482 
	C421.032257,328.081482 421.015198,328.015045 420.684326,327.916016 
	C420.245728,328.238678 420.137970,328.660400 420.030182,329.082123 
	C420.030182,329.082123 420.015411,329.015381 419.677551,328.916565 
	C419.237671,329.238647 419.135712,329.659576 419.033722,330.080505 
	C419.033722,330.080505 419.003754,330.009064 418.756165,329.790100 
	C417.975922,330.300201 417.443298,331.029205 416.910645,331.758240 
	C409.688141,338.571747 402.612274,345.549377 395.211090,352.162872 
	C381.858826,364.094086 368.309418,375.804657 354.847076,387.612793 
	C346.690430,394.767273 338.617371,402.019196 330.372253,409.070038 
	C319.928375,418.001099 309.271057,426.682922 298.850098,435.640137 
	C290.117401,443.146210 281.615814,450.920441 272.965271,458.522888 
	C268.289673,462.632050 263.663544,466.820618 258.743103,470.621246 
	C254.371048,473.998199 244.180649,471.914032 238.369171,466.890076 
	C223.736725,454.240326 209.088852,441.608398 194.463974,428.949951 
	C181.926712,418.098419 169.368118,407.270905 156.900146,396.340149 
	C142.560822,383.768768 128.074844,371.350494 114.083191,358.400452 
	C97.545547,343.093994 80.918907,327.817474 65.324913,311.573669 
	C43.837112,289.190491 25.377548,264.385315 13.092453,235.656082 
	C8.716010,225.421570 6.361343,214.323669 3.053879,203.629120 
	C2.732713,202.590637 2.199673,201.617661 1.382490,200.807144 
	C1.000000,200.250000 1.000000,199.500000 1.280320,198.688629 
	C1.824798,198.076202 2.088955,197.525116 2.353112,196.974045 
	C1.902075,196.982697 1.451037,196.991348 1.000000,197.000000 
	C1.000000,181.645767 1.000000,166.291550 1.276050,150.789230 
	C1.820897,150.092407 2.089694,149.543655 2.358492,148.994919 
	C1.905662,148.996613 1.452831,148.998306 1.000000,149.000000 
	C1.000000,148.250000 1.000000,147.500000 1.344095,146.615738 
	C2.668824,143.265121 3.788636,140.083786 4.608183,136.826904 
	C11.467243,109.568771 23.872242,85.596489 44.465546,65.905479 
	C59.886765,51.159950 77.784142,41.297096 97.912994,34.920654 
	C109.849510,31.139389 122.225426,31.147720 134.500259,30.256742 
	C138.344894,29.977680 142.293365,29.644121 146.066483,30.201199 
	C152.215622,31.109077 158.319855,32.500862 164.336945,34.090122 
	C182.719879,38.945492 199.331573,47.393600 213.466522,60.138618 
	C226.106720,71.535843 237.481461,84.117409 246.000671,99.031746 
	C247.406845,101.493484 249.039078,103.826096 250.896423,106.734474 
	C260.764374,89.506721 272.087738,74.646225 286.384216,61.934654 
	C299.335724,50.418945 313.634949,41.668812 329.932312,35.923008 
	C346.674042,30.020535 363.909515,29.834034 381.275970,31.053444 
	C395.243500,32.034195 408.448853,36.045002 421.201019,41.690193 
	C440.960236,50.437256 456.953552,63.738102 470.343445,80.684616 
	C484.414795,98.493652 493.376129,118.414604 498.063812,140.472061 
	C498.480774,142.434097 499.995239,144.162888 501.000000,146.000000 
	C501.000000,163.687561 501.000000,181.375122 501.000000,199.531342 
M470.835419,184.305969 
	C470.670502,174.381622 470.515686,164.457062 470.294220,154.533981 
	C470.287231,154.219971 469.593628,153.921280 469.081818,152.817123 
	C467.274780,145.231827 466.409729,137.258224 463.474640,130.137955 
	C456.225067,112.551086 447.145905,96.147171 432.196289,83.384148 
	C416.335724,69.843430 397.828369,62.838219 377.775085,60.217319 
	C360.573761,57.969154 343.765137,61.646641 328.192627,69.423210 
	C307.790924,79.611343 292.825592,95.799812 281.581421,115.178123 
	C275.333038,125.946602 270.922455,137.801819 265.951813,149.283386 
	C263.137177,155.784882 258.207397,159.573822 252.045105,160.036774 
	C244.143082,160.630447 239.092621,155.817657 236.308136,149.800964 
	C230.436081,137.112732 224.938690,124.208565 218.287247,111.935104 
	C211.106461,98.684883 200.630203,88.085495 188.663727,78.828323 
	C178.420807,70.904488 167.061218,65.166992 154.643250,62.590412 
	C144.423721,60.469978 133.539917,59.296219 123.236366,60.391663 
	C109.568848,61.844757 96.389389,66.419518 84.180473,73.305641 
	C71.561226,80.423203 61.502136,90.440681 53.198727,101.914268 
	C45.504089,112.546661 39.957260,124.528091 36.223370,137.298843 
	C30.971331,155.262009 28.977524,173.578979 32.222549,191.907761 
	C36.108479,213.856522 43.660839,234.525162 56.886616,252.994461 
	C69.062386,269.997467 81.732536,286.561188 96.752380,301.083862 
	C113.386635,317.167511 130.609909,332.646790 147.720016,348.231903 
	C159.640610,359.090057 171.687653,369.816132 183.884048,380.363220 
	C202.034668,396.059296 220.363113,411.549835 238.625046,427.117096 
	C242.702240,430.592682 246.817322,434.023834 251.093872,437.626160 
	C258.660065,430.668671 265.520813,423.972992 272.794067,417.760223 
	C284.390869,407.854340 296.351471,398.375305 307.994629,388.522400 
	C322.321411,376.398529 336.683044,364.302460 350.655945,351.777527 
	C365.293671,338.656647 379.765625,325.323853 393.789459,311.553558 
	C405.044037,300.502441 415.750549,288.863983 426.250763,277.085419 
	C431.985992,270.651978 436.892181,263.462555 441.990601,256.481415 
	C457.683258,234.993759 468.131683,211.419250 470.835419,184.305969 
z"/>
<path fill="#000000" opacity="1.000000" stroke="none" 
	d="
M501.000000,145.531342 
	C499.995239,144.162888 498.480774,142.434097 498.063812,140.472061 
	C493.376129,118.414604 484.414795,98.493652 470.343445,80.684616 
	C456.953552,63.738102 440.960236,50.437256 421.201019,41.690193 
	C408.448853,36.045002 395.243500,32.034195 381.275970,31.053444 
	C363.909515,29.834034 346.674042,30.020535 329.932312,35.923008 
	C313.634949,41.668812 299.335724,50.418945 286.384216,61.934654 
	C272.087738,74.646225 260.764374,89.506721 250.896423,106.734474 
	C249.039078,103.826096 247.406845,101.493484 246.000671,99.031746 
	C237.481461,84.117409 226.106720,71.535843 213.466522,60.138618 
	C199.331573,47.393600 182.719879,38.945492 164.336945,34.090122 
	C158.319855,32.500862 152.215622,31.109077 146.066483,30.201199 
	C142.293365,29.644121 138.344894,29.977680 134.500259,30.256742 
	C122.225426,31.147720 109.849510,31.139389 97.912994,34.920654 
	C77.784142,41.297096 59.886765,51.159950 44.465546,65.905479 
	C23.872242,85.596489 11.467243,109.568771 4.608183,136.826904 
	C3.788636,140.083786 2.668824,143.265121 1.344095,146.240738 
	C1.000000,97.693436 1.000000,49.386871 1.000000,1.040154 
	C167.547577,1.040154 334.095184,1.040154 501.000000,1.040154 
	C501.000000,49.020306 501.000000,97.041496 501.000000,145.531342 
z"/>
<path fill="#000000" opacity="1.000000" stroke="none" 
	d="
M1.000000,197.250000 
	C1.451037,196.991348 1.902075,196.982697 2.353112,196.974045 
	C2.088955,197.525116 1.824798,198.076202 1.280320,198.313629 
	C1.000000,198.000000 1.000000,197.500000 1.000000,197.250000 
z"/>
<path fill="#000000" opacity="1.000000" stroke="none" 
	d="
M1.000000,149.250000 
	C1.452831,148.998306 1.905662,148.996613 2.358492,148.994919 
	C2.089694,149.543655 1.820897,150.092407 1.276050,150.320572 
	C1.000000,150.000000 1.000000,149.500000 1.000000,149.250000 
z"/>
<path fill="#FEBCB0" opacity="1.000000" stroke="none" 
	d="
M417.215729,331.822784 
	C417.443298,331.029205 417.975922,330.300201 418.785767,329.815125 
	C418.548889,330.668488 418.034851,331.277924 417.215729,331.822784 
z"/>
<path fill="#FEBCB0" opacity="1.000000" stroke="none" 
	d="
M429.362335,319.996582 
	C429.398163,319.392242 429.734161,318.721924 430.427521,317.979370 
	C430.410736,318.581635 430.036621,319.256134 429.362335,319.996582 
z"/>
<path fill="#FEBCB0" opacity="1.000000" stroke="none" 
	d="
M428.308136,321.027283 
	C428.137573,320.650360 428.239471,320.220428 428.710754,319.913940 
	C428.913635,320.349701 428.747131,320.661987 428.308136,321.027283 
z"/>
<path fill="#FEBCB0" opacity="1.000000" stroke="none" 
	d="
M427.307800,322.029907 
	C427.135193,321.648895 427.237030,321.216980 427.709503,320.910522 
	C427.914185,321.350342 427.748230,321.664673 427.307800,322.029907 
z"/>
<path fill="#FEBCB0" opacity="1.000000" stroke="none" 
	d="
M426.298035,323.024780 
	C426.137787,322.658661 426.248840,322.233826 426.720581,321.920715 
	C426.910645,322.343628 426.739990,322.654877 426.298035,323.024780 
z"/>
<path fill="#FEBCB0" opacity="1.000000" stroke="none" 
	d="
M425.298340,324.028656 
	C425.138336,323.664703 425.253662,323.246063 425.726013,322.927612 
	C425.913269,323.343140 425.743500,323.658539 425.298340,324.028656 
z"/>
<path fill="#FEBCB0" opacity="1.000000" stroke="none" 
	d="
M424.298767,325.027344 
	C424.139832,324.674500 424.256287,324.265686 424.728027,323.940063 
	C424.913574,324.339294 424.743835,324.655304 424.298767,325.027344 
z"/>
<path fill="#FEBCB0" opacity="1.000000" stroke="none" 
	d="
M423.302124,326.028259 
	C423.140472,325.673584 423.254425,325.263794 423.725769,324.938751 
	C423.914703,325.340027 423.746216,325.656586 423.302124,326.028259 
z"/>
<path fill="#FEBCB0" opacity="1.000000" stroke="none" 
	d="
M422.302551,327.028168 
	C422.140869,326.670410 422.254211,326.257843 422.725403,325.935974 
	C422.914703,326.342224 422.746124,326.657776 422.302551,327.028168 
z"/>
<path fill="#FEBCB0" opacity="1.000000" stroke="none" 
	d="
M421.308044,328.029602 
	C421.139038,327.665497 421.245850,327.249542 421.717712,326.930908 
	C421.916443,327.344757 421.750153,327.661255 421.308044,328.029602 
z"/>
<path fill="#FEBCB0" opacity="1.000000" stroke="none" 
	d="
M420.303619,329.027374 
	C420.137970,328.660400 420.245728,328.238678 420.717590,327.924377 
	C420.913483,328.345398 420.745270,328.658997 420.303619,329.027374 
z"/>
<path fill="#FEBCB0" opacity="1.000000" stroke="none" 
	d="
M419.306763,330.025604 
	C419.135712,329.659576 419.237671,329.238647 419.710938,328.923767 
	C419.914764,329.343414 419.747284,329.657043 419.306763,330.025604 
z"/>
<path fill="#000000" opacity="1.000000" stroke="none" 
	d="
M470.222717,184.577728 
	C468.131683,211.419250 457.683258,234.993759 441.990601,256.481415 
	C436.892181,263.462555 431.985992,270.651978 426.250763,277.085419 
	C415.750549,288.863983 405.044037,300.502441 393.789459,311.553558 
	C379.765625,325.323853 365.293671,338.656647 350.655945,351.777527 
	C336.683044,364.302460 322.321411,376.398529 307.994629,388.522400 
	C296.351471,398.375305 284.390869,407.854340 272.794067,417.760223 
	C265.520813,423.972992 258.660065,430.668671 251.093872,437.626160 
	C246.817322,434.023834 242.702240,430.592682 238.625046,427.117096 
	C220.363113,411.549835 202.034668,396.059296 183.884048,380.363220 
	C171.687653,369.816132 159.640610,359.090057 147.720016,348.231903 
	C130.609909,332.646790 113.386635,317.167511 96.752380,301.083862 
	C81.732536,286.561188 69.062386,269.997467 56.886616,252.994461 
	C43.660839,234.525162 36.108479,213.856522 32.222549,191.907761 
	C28.977524,173.578979 30.971331,155.262009 36.223370,137.298843 
	C39.957260,124.528091 45.504089,112.546661 53.198727,101.914268 
	C61.502136,90.440681 71.561226,80.423203 84.180473,73.305641 
	C96.389389,66.419518 109.568848,61.844757 123.236366,60.391663 
	C133.539917,59.296219 144.423721,60.469978 154.643250,62.590412 
	C167.061218,65.166992 178.420807,70.904488 188.663727,78.828323 
	C200.630203,88.085495 211.106461,98.684883 218.287247,111.935104 
	C224.938690,124.208565 230.436081,137.112732 236.308136,149.800964 
	C239.092621,155.817657 244.143082,160.630447 252.045105,160.036774 
	C258.207397,159.573822 263.137177,155.784882 265.951813,149.283386 
	C270.922455,137.801819 275.333038,125.946602 281.581421,115.178123 
	C292.825592,95.799812 307.790924,79.611343 328.192627,69.423210 
	C343.765137,61.646641 360.573761,57.969154 377.775085,60.217319 
	C397.828369,62.838219 416.335724,69.843430 432.196289,83.384148 
	C447.145905,96.147171 456.225067,112.551086 463.474640,130.137955 
	C466.409729,137.258224 467.274780,145.231827 469.032532,153.672089 
	C469.396393,164.543930 469.809540,174.560837 470.222717,184.577728 
z"/>
<path fill="#FFBDB4" opacity="1.000000" stroke="none" 
	d="
M470.529053,184.441849 
	C469.809540,174.560837 469.396393,164.543930 469.101685,154.071228 
	C469.593628,153.921280 470.287231,154.219971 470.294220,154.533981 
	C470.515686,164.457062 470.670502,174.381622 470.529053,184.441849 
z"/>
</svg>