<svg version="1.1" id="Layer_1" xmlns="http://www.w3.org/2000/svg" xmlns:xlink="http://www.w3.org/1999/xlink" x="0px" y="0px"
	 width="100%" viewBox="0 0 512 512" enable-background="new 0 0 512 512" xml:space="preserve">
<path fill="#F9341C" opacity="1.000000" stroke="none" 
	d="
M116.000000,513.000000 
	C107.979103,513.000000 99.958199,513.000000 91.807709,512.731262 
	C90.882111,511.967743 90.144760,511.305450 89.281364,511.003143 
	C74.715378,505.903564 64.805832,490.725342 64.834618,475.885986 
	C65.110359,333.746582 65.161804,191.606064 64.820854,49.466980 
	C64.770897,28.637993 77.485321,9.311589 97.134659,2.980179 
	C97.890640,2.736588 98.384178,1.678535 99.000000,1.000001 
	C204.354233,1.000000 309.708466,1.000000 415.187012,1.254274 
	C416.677399,2.336979 417.952911,3.407951 419.423309,3.956716 
	C436.091064,10.177336 449.026459,27.539993 449.021393,46.280933 
	C448.982880,189.094299 448.855072,331.908020 449.191284,474.720581 
	C449.231628,491.855286 438.849915,505.949860 424.366119,511.068329 
	C423.759033,511.282898 423.448639,512.337036 423.000000,513.000000 
	C414.979095,513.000000 406.958191,513.000000 398.812225,512.757080 
	C393.144714,508.529968 386.955353,505.199524 382.162811,500.457428 
	C346.044678,464.718964 310.198578,428.705536 274.273590,392.771881 
	C264.034943,382.530762 249.884598,382.562439 239.820236,392.648468 
	C204.047409,428.498566 168.273071,464.347839 132.316925,500.013550 
	C128.320557,503.977661 123.124916,506.722595 118.556145,510.127777 
	C117.549644,510.877960 116.844124,512.031982 116.000000,513.000000 
z"/>
<path fill="#000000" opacity="1.000000" stroke="none" 
	d="
M98.531342,1.000001 
	C98.384178,1.678535 97.890640,2.736588 97.134659,2.980179 
	C77.485321,9.311589 64.770897,28.637993 64.820854,49.466980 
	C65.161804,191.606064 65.110359,333.746582 64.834618,475.885986 
	C64.805832,490.725342 74.715378,505.903564 89.281364,511.003143 
	C90.144760,511.305450 90.882111,511.967743 91.339050,512.731262 
	C61.018757,513.000000 31.037516,513.000000 1.058958,513.000000 
	C1.061643,342.333313 1.061643,171.666656 1.061643,1.000000 
	C33.436417,1.000000 65.749550,1.000000 98.531342,1.000001 
z"/>
<path fill="#000000" opacity="1.000000" stroke="none" 
	d="
M423.468658,513.000000 
	C423.448639,512.337036 423.759033,511.282898 424.366119,511.068329 
	C438.849915,505.949860 449.231628,491.855286 449.191284,474.720581 
	C448.855072,331.908020 448.982880,189.094299 449.021393,46.280933 
	C449.026459,27.539993 436.091064,10.177336 419.423309,3.956716 
	C417.952911,3.407951 416.677399,2.336979 415.655701,1.254274 
	C448.313080,1.000000 480.626190,1.000000 512.940063,1.000003 
	C512.940796,171.666672 512.940796,342.333344 512.940796,513.000000 
	C483.233459,513.000000 453.585388,513.000000 423.468658,513.000000 
z"/>
<path fill="#000000" opacity="1.000000" stroke="none" 
	d="
M116.468658,513.000000 
	C116.844124,512.031982 117.549644,510.877960 118.556145,510.127777 
	C123.124916,506.722595 128.320557,503.977661 132.316925,500.013550 
	C168.273071,464.347839 204.047409,428.498566 239.820236,392.648468 
	C249.884598,382.562439 264.034943,382.530762 274.273590,392.771881 
	C310.198578,428.705536 346.044678,464.718964 382.162811,500.457428 
	C386.955353,505.199524 393.144714,508.529968 398.343567,512.757080 
	C304.312439,513.000000 210.624878,513.000000 116.468658,513.000000 
z"/>
</svg>