<svg version="1.1" id="Layer_1" xmlns="http://www.w3.org/2000/svg" xmlns:xlink="http://www.w3.org/1999/xlink" x="0px" y="0px"
	 width="100%" viewBox="0 0 500 500" enable-background="new 0 0 500 500" xml:space="preserve">
<path fill="#FA331B" opacity="1.000000" stroke="none" 
	d="
M113.000000,501.000000 
	C104.645767,501.000000 96.291534,501.000000 87.754128,500.695435 
	C84.191055,498.206268 80.597305,496.288330 77.473854,493.783844 
	C69.963570,487.761993 65.325577,479.846283 63.532310,470.176605 
	C63.967304,466.401062 64.099777,462.921814 64.099945,459.442596 
	C64.106506,320.561188 64.101105,181.679779 64.067894,42.375393 
	C65.840118,35.980923 66.799652,29.572151 69.624664,24.132128 
	C74.935776,13.904695 83.936516,7.370516 94.522827,2.985467 
	C95.177101,2.714452 95.514938,1.679513 96.000000,1.000001 
	C198.020889,1.000000 300.041779,1.000000 402.522034,1.330584 
	C408.131012,4.156088 413.696533,6.049510 418.347900,9.265218 
	C429.677643,17.098017 437.109650,27.618858 437.904541,42.371964 
	C437.840393,46.004475 437.891998,49.169159 437.892029,52.333847 
	C437.893829,189.439606 437.888092,326.545380 437.926636,463.651123 
	C437.927063,465.210205 438.495941,466.769165 438.853729,468.702667 
	C438.669312,469.498291 438.290497,469.895020 438.212158,470.344147 
	C435.787811,484.242279 428.072540,493.824921 414.962280,499.098663 
	C414.466736,499.297974 414.312988,500.346954 414.000000,501.000000 
	C405.979095,501.000000 397.958191,501.000000 389.760864,500.692322 
	C387.395294,499.086609 384.931396,498.097504 383.064575,496.437103 
	C374.930206,489.202148 366.711243,482.032043 358.991211,474.366852 
	C328.647339,444.238495 298.434326,413.977722 268.275879,383.663513 
	C259.236328,374.577332 247.178711,374.384735 239.599945,379.377899 
	C234.057907,383.029205 229.685760,388.456207 224.555588,393.172974 
	C224.211624,393.530762 224.104202,393.807312 223.996994,394.044037 
	C223.997223,394.004211 224.076859,394.005035 223.699799,393.897217 
	C223.223862,394.220276 223.124969,394.651123 223.019867,395.047638 
	C223.013672,395.013306 223.082504,395.024780 222.708252,394.900421 
	C222.230957,395.211548 222.127899,395.647003 222.019196,396.048004 
	C222.013535,396.013519 222.082489,396.024811 221.708191,395.900330 
	C221.230896,396.211395 221.127884,396.646912 221.019226,397.047974 
	C221.013596,397.013519 221.082550,397.024658 220.699051,396.899200 
	C220.220688,397.209290 220.125824,397.644806 220.021851,398.046539 
	C220.012756,398.012726 220.080383,398.030914 219.703735,397.880066 
	C219.226730,398.180267 219.126373,398.631287 219.019775,399.047974 
	C219.013550,399.013641 219.082214,399.026337 218.705475,398.895752 
	C218.227997,399.204132 218.127243,399.643158 218.020020,400.047852 
	C218.013565,400.013580 218.082123,400.026611 217.704712,399.894714 
	C217.227173,400.202545 217.127029,400.642273 217.020233,401.047791 
	C217.013580,401.013550 217.082077,401.026764 216.703522,400.894043 
	C216.225845,401.201447 216.126724,401.641602 216.020554,402.047607 
	C216.013504,402.013489 216.081818,402.027466 215.703171,401.891815 
	C215.225571,402.198029 215.126633,402.639893 215.020630,403.047607 
	C215.013596,403.013428 215.082047,403.026978 214.697632,402.893188 
	C214.219299,403.199677 214.125397,403.639923 214.022125,404.046448 
	C214.012772,404.012665 214.080383,404.031097 213.696289,403.878845 
	C213.218445,404.177887 213.124664,404.629181 213.021851,405.046631 
	C213.012802,405.012787 213.080475,405.030884 212.697540,404.880127 
	C212.219833,405.179810 212.125076,405.630280 212.021606,406.046814 
	C212.012894,406.012939 212.080597,406.030609 211.697937,405.880981 
	C211.220230,406.181183 211.125168,406.630981 211.021576,407.046906 
	C211.013031,407.013000 211.080826,407.030060 210.698883,406.883057 
	C210.221222,407.184387 210.125473,407.632660 210.021362,408.047028 
	C210.013016,408.013092 210.080811,408.030060 209.698273,407.882446 
	C209.220474,408.183502 209.125214,408.632202 209.021484,409.046936 
	C209.013031,409.013031 209.080856,409.029968 208.698273,408.882812 
	C208.220459,409.184021 208.125214,409.632446 208.021484,410.046936 
	C208.012985,410.013000 208.080765,410.030151 207.702271,409.882965 
	C207.224976,410.184479 207.126190,410.633148 207.020508,411.047668 
	C207.013611,411.013489 207.082031,411.026978 206.693268,410.892303 
	C206.214325,411.198120 206.124130,411.638580 206.022995,412.045471 
	C206.012054,412.011841 206.079407,412.033295 205.695648,411.870972 
	C205.218124,412.165924 205.124359,412.623230 205.021698,413.046692 
	C205.012833,413.012817 205.080505,413.030670 204.695312,412.880005 
	C204.217270,413.179596 204.124451,413.629883 204.022034,414.046356 
	C204.012436,414.012573 204.079895,414.032074 203.702240,413.876678 
	C203.225372,414.174866 203.126160,414.628479 203.020203,415.047852 
	C203.013443,415.013611 203.081848,415.027405 202.699432,414.891663 
	C202.221375,415.197540 202.125748,415.639160 202.021561,416.046875 
	C202.013000,416.012939 202.080841,416.029968 201.698471,415.882812 
	C201.220673,416.184082 201.125244,416.632507 201.021454,417.046967 
	C201.013077,417.013031 201.080948,417.029724 200.699066,416.883850 
	C200.221313,417.185638 200.125458,417.633331 200.021362,418.047058 
	C200.013123,418.013123 200.081009,418.029602 199.699280,417.884369 
	C199.221542,418.186432 199.125549,418.633759 199.021362,419.047119 
	C199.013184,419.013153 199.081116,419.029388 198.695496,418.884369 
	C198.217209,419.186249 198.124527,419.633148 198.022263,420.046265 
	C198.012665,420.012512 198.080292,420.031342 197.695770,419.878296 
	C197.217926,420.176910 197.124588,420.628632 197.022003,421.046509 
	C197.012726,421.012726 197.080338,421.031219 196.692993,420.878052 
	C196.214737,421.176453 196.123825,421.628021 196.022491,422.045898 
	C196.012054,422.012207 196.079330,422.033417 195.699738,421.871277 
	C195.222794,422.166626 195.125443,422.624115 195.020630,423.047485 
	C195.013153,423.013367 195.081238,423.028931 194.700241,422.886169 
	C194.222473,423.189362 194.125687,423.635315 194.021057,424.047241 
	C194.013199,424.013214 194.081192,424.029053 193.704025,423.886505 
	C193.226730,424.190033 193.126587,424.636108 193.019958,425.047913 
	C193.013474,425.013641 193.081955,425.026947 192.703995,424.892822 
	C192.226349,425.199799 192.126648,425.640869 192.020203,426.047729 
	C192.013474,426.013489 192.081955,426.026917 191.703995,425.892822 
	C191.226334,426.199799 191.126648,426.640839 191.020218,427.047699 
	C191.013474,427.013489 191.081909,427.026947 190.703934,426.892609 
	C190.226273,427.199463 190.126602,427.640686 190.019302,428.047760 
	C190.011688,428.013641 190.078537,428.034088 189.716675,427.862854 
	C189.044022,428.098022 188.733231,428.504456 188.243378,429.140320 
	C186.675110,430.721680 185.285889,432.073608 183.531494,433.573853 
	C183.121323,434.174438 183.076370,434.626709 183.022629,435.045380 
	C183.013855,435.011749 183.082291,435.023804 182.706589,434.899719 
	C182.228806,435.211029 182.126740,435.646423 182.018936,436.047485 
	C182.013199,436.013153 182.081909,436.024536 181.703491,435.896179 
	C181.225723,436.205780 181.126358,436.643707 181.020172,437.047455 
	C181.013336,437.013275 181.081726,437.026794 180.703369,436.891663 
	C180.225601,437.198273 180.126190,437.639984 180.020020,438.047546 
	C180.013245,438.013397 180.081497,438.027283 179.703705,437.889099 
	C179.226105,438.194672 179.126297,438.638397 179.020081,439.047852 
	C179.013657,439.013550 179.082336,439.026093 178.702759,438.895355 
	C178.224869,439.203613 178.126556,439.642639 178.020813,440.047546 
	C178.013397,440.013428 178.081573,440.028351 177.705719,439.888824 
	C177.228409,440.193726 177.126953,440.638184 177.019608,441.048157 
	C177.013718,441.013733 177.082611,441.025513 176.703278,440.897522 
	C176.225327,441.206909 176.126694,441.644257 176.020767,442.047546 
	C176.013489,442.013458 176.081680,442.027924 175.702057,441.889191 
	C175.224258,442.194214 175.126083,442.637939 175.020752,443.047546 
	C175.013626,443.013428 175.082001,443.027191 174.699493,442.892242 
	C174.221375,443.198456 174.125748,443.639648 174.021561,444.046875 
	C174.013000,444.012970 174.080811,444.030151 173.697754,443.881165 
	C173.219788,444.181732 173.124878,444.631317 173.021545,445.046936 
	C173.013138,445.013031 173.081024,445.029663 172.699448,444.883789 
	C172.221695,445.185638 172.125519,445.633423 172.021240,446.047180 
	C172.013138,446.013184 172.081131,446.029388 171.699814,445.884766 
	C171.222046,446.187164 171.125595,446.634186 171.021179,447.047241 
	C171.013199,447.013214 171.081207,447.029236 170.700012,446.885254 
	C170.222229,447.187927 170.125656,447.634583 170.021149,448.047241 
	C170.013199,448.013245 170.081223,448.029175 169.700104,447.885376 
	C169.222321,448.188171 169.125671,448.634735 169.021149,449.047241 
	C169.013260,449.013214 169.081345,449.028931 168.698975,448.885986 
	C168.221008,449.189026 168.125443,449.635010 168.021515,450.047058 
	C168.013153,450.013123 168.081024,450.029785 167.699371,449.883362 
	C167.221573,450.184998 167.125443,450.633118 167.021332,451.047211 
	C167.013336,451.013214 167.081406,451.028900 166.689758,450.884644 
	C166.210464,451.186493 166.122833,451.632538 166.023407,452.045044 
	C166.011597,452.011505 166.078812,452.034790 165.694489,451.864685 
	C165.217026,452.156586 165.123886,452.618561 165.014526,453.043823 
	C164.998291,453.007111 165.053940,453.064911 164.826080,452.766602 
	C164.090652,452.963684 163.583115,453.459045 162.943817,454.267517 
	C150.830383,466.568146 139.011261,478.725525 126.767563,490.439178 
	C123.112297,493.936188 118.246452,496.158569 113.997368,499.056091 
	C113.468819,499.416473 113.323105,500.338318 113.000000,501.000000 
M151.985596,421.985535 
	C151.985596,421.985535 151.916946,421.970093 152.715759,422.336914 
	C152.800491,421.863617 152.885223,421.390320 152.985291,420.985718 
	C152.985291,420.985718 152.916489,420.971008 153.734024,421.331360 
	C153.811127,420.860626 153.888229,420.389862 153.986588,419.987000 
	C153.986588,419.987000 153.918472,419.966522 154.722183,420.368713 
	C154.804214,419.885040 154.886246,419.401367 155.003159,418.990631 
	C155.003159,418.990631 154.944412,418.935211 155.410095,419.601776 
	C155.938477,419.057861 156.466858,418.513947 157.230453,417.345245 
	C163.586761,411.058197 169.943054,404.771149 176.413071,398.670776 
	C176.331360,398.759888 176.402649,398.621246 176.946533,397.643250 
	C178.260986,396.431061 179.575439,395.218903 181.574951,393.937103 
	C185.321320,390.259918 189.115295,386.628937 192.771103,382.863800 
	C193.445679,382.169037 193.561325,380.931549 193.990387,380.003571 
	C193.990387,380.003571 193.917587,379.967957 194.726974,380.364899 
	C194.807297,379.882477 194.887619,379.400024 194.985992,378.985962 
	C194.985992,378.985962 194.917618,378.967896 195.728699,379.366058 
	C195.808304,378.883270 195.887924,378.400513 195.986313,377.986053 
	C195.986313,377.986053 195.918106,377.966858 196.716370,378.373199 
	C196.801117,377.887604 196.885880,377.401978 197.003174,376.989258 
	C197.003174,376.989258 196.943909,376.935852 197.400375,377.595306 
	C197.916489,377.057007 198.432602,376.518707 199.196411,375.355316 
	C202.019684,372.526978 204.910980,369.762878 207.654053,366.858826 
	C217.728943,356.192688 229.301590,348.837891 244.356171,346.686218 
	C259.549500,344.514709 272.861237,348.437286 283.959351,357.911774 
	C296.623657,368.723358 308.118286,380.926636 319.901611,392.744110 
	C344.930176,417.845428 369.779266,443.125580 394.790466,468.244293 
	C400.161469,473.638367 403.619324,473.164703 408.593781,466.635315 
	C408.764618,464.831543 409.084656,463.027832 409.085022,461.224030 
	C409.112396,324.019928 409.117706,186.815796 409.080383,49.611694 
	C409.079956,48.057861 408.500122,46.504185 408.053467,44.203007 
	C406.232727,37.951908 402.979462,33.089848 395.785187,31.048208 
	C393.752045,30.674864 391.719147,29.976217 389.685760,29.974947 
	C298.455017,29.917946 207.224228,29.921860 115.993454,29.921230 
	C113.662880,29.921213 111.308723,29.762650 109.012169,30.050190 
	C107.944466,30.183870 106.988617,31.210897 105.228470,31.974632 
	C98.156525,32.872646 95.783615,38.238831 93.167717,44.542950 
	C93.074226,46.034218 92.898972,47.525478 92.898857,49.016754 
	C92.888840,186.704819 92.888695,324.392883 92.934090,462.080963 
	C92.934662,463.821747 93.528236,465.562378 94.290619,467.810608 
	C95.696724,471.669037 98.593079,471.904633 102.670937,471.045654 
	C103.118530,470.667664 103.566124,470.289703 104.005066,470.001068 
	C104.005066,470.001068 103.915649,469.993286 104.672005,470.172485 
	C104.774017,469.753326 104.876030,469.334198 104.992531,468.984100 
	C104.992531,468.984100 104.927727,468.956177 105.545601,469.450684 
	C107.344063,467.279999 109.142525,465.109344 110.990372,462.999390 
	C110.990372,462.999390 110.918770,462.967743 111.717361,463.338867 
	C111.800728,462.865540 111.884102,462.392212 111.986687,461.986786 
	C111.986687,461.986786 111.918716,461.967834 112.716019,462.336395 
	C112.799881,461.863861 112.883743,461.391327 112.986588,460.986694 
	C112.986588,460.986694 112.918617,460.967987 113.725510,461.336884 
	C113.805420,460.864563 113.885338,460.392242 114.003212,459.993164 
	C114.003212,459.993164 113.946281,459.933777 114.406723,460.594543 
	C114.937996,460.059357 115.469269,459.524170 116.237099,458.363647 
	C122.284180,452.373627 128.331268,446.383606 134.528183,440.652863 
	C134.519836,440.535187 134.511490,440.417480 134.973938,439.603241 
	C135.410782,439.258820 135.847610,438.914368 136.520386,438.257416 
	C136.907730,437.923126 137.295090,437.588806 137.947220,436.656006 
	C138.597473,436.105652 139.247711,435.555298 140.579727,434.922852 
	C142.360367,433.225342 144.291046,431.656250 145.882294,429.796692 
	C147.724838,427.643463 149.268860,425.234741 150.988007,422.998566 
	C150.988007,422.998566 150.916611,422.970856 151.713974,423.328735 
	C151.799393,422.858124 151.884796,422.387482 151.985596,421.985535 
z"/>
<path fill="#000000" opacity="1.000000" stroke="none" 
	d="
M437.996307,41.904144 
	C437.109650,27.618858 429.677643,17.098017 418.347900,9.265218 
	C413.696533,6.049510 408.131012,4.156088 402.990662,1.330584 
	C435.645782,1.000000 468.291595,1.000000 500.939301,1.000003 
	C500.941223,167.666672 500.941223,334.333344 500.941223,501.000000 
	C472.234039,501.000000 443.585693,501.000000 414.468628,501.000000 
	C414.312988,500.346954 414.466736,499.297974 414.962280,499.098663 
	C428.072540,493.824921 435.787811,484.242279 438.212158,470.344147 
	C438.290497,469.895020 438.669312,469.498291 438.952820,468.210297 
	C439.001801,327.024658 439.009094,186.705887 438.968109,46.387127 
	C438.967682,44.892704 438.334229,43.398468 437.996307,41.904144 
z"/>
<path fill="#000000" opacity="1.000000" stroke="none" 
	d="
M95.531342,1.000001 
	C95.514938,1.679513 95.177101,2.714452 94.522827,2.985467 
	C83.936516,7.370516 74.935776,13.904695 69.624664,24.132128 
	C66.799652,29.572151 65.840118,35.980923 63.663784,42.589127 
	C63.193851,44.877674 63.015526,46.529510 63.015362,48.181362 
	C63.001488,186.118408 63.000450,324.055481 63.007416,461.992523 
	C63.007561,464.819336 63.112198,467.646118 63.168091,470.472931 
	C65.325577,479.846283 69.963570,487.761993 77.473854,493.783844 
	C80.597305,496.288330 84.191055,498.206268 87.285477,500.695435 
	C58.351757,501.000000 29.703516,501.000000 1.058398,501.000000 
	C1.061523,334.333313 1.061523,167.666656 1.061523,1.000000 
	C32.436260,1.000000 63.749470,1.000000 95.531342,1.000001 
z"/>
<path fill="#000000" opacity="1.000000" stroke="none" 
	d="
M224.792130,393.091705 
	C229.685760,388.456207 234.057907,383.029205 239.599945,379.377899 
	C247.178711,374.384735 259.236328,374.577332 268.275879,383.663513 
	C298.434326,413.977722 328.647339,444.238495 358.991211,474.366852 
	C366.711243,482.032043 374.930206,489.202148 383.064575,496.437103 
	C384.931396,498.097504 387.395294,499.086609 389.292236,500.692322 
	C297.312439,501.000000 205.624878,501.000000 113.468658,501.000000 
	C113.323105,500.338318 113.468819,499.416473 113.997368,499.056091 
	C118.246452,496.158569 123.112297,493.936188 126.767563,490.439178 
	C139.011261,478.725525 150.830383,466.568146 163.262177,454.280151 
	C164.159500,453.674713 164.606720,453.369812 165.053940,453.064911 
	C165.053940,453.064911 164.998291,453.007111 165.290604,452.994873 
	C165.748215,452.666656 165.913513,452.350739 166.078812,452.034790 
	C166.078812,452.034790 166.011597,452.011505 166.299545,451.995667 
	C166.752121,451.662842 166.916763,451.345886 167.081406,451.028900 
	C167.081406,451.028900 167.013336,451.013214 167.298416,450.997681 
	C167.749329,450.664673 167.915176,450.347229 168.081024,450.029785 
	C168.081024,450.029785 168.013153,450.013123 168.298615,449.997437 
	C168.749817,449.664154 168.915573,449.346527 169.081329,449.028931 
	C169.081345,449.028931 169.013260,449.013214 169.298370,448.997681 
	C169.749405,448.664459 169.915314,448.346832 170.081223,448.029175 
	C170.081223,448.029175 170.013199,448.013245 170.298340,447.997681 
	C170.749405,447.664490 170.915298,447.346863 171.081207,447.029236 
	C171.081207,447.029236 171.013199,447.013214 171.298355,446.997681 
	C171.749390,446.664551 171.915268,446.346954 172.081131,446.029388 
	C172.081131,446.029388 172.013138,446.013184 172.298340,445.997650 
	C172.749359,445.664642 172.915192,445.347137 173.081024,445.029663 
	C173.081024,445.029663 173.013138,445.013031 173.298477,444.997498 
	C173.749481,444.664703 173.915146,444.347443 174.080811,444.030151 
	C174.080811,444.030151 174.013000,444.012970 174.298889,443.997131 
	C174.750504,443.663269 174.916245,443.345245 175.082001,443.027191 
	C175.082001,443.027191 175.013626,443.013428 175.298401,442.997864 
	C175.749344,442.664154 175.915512,442.346039 176.081680,442.027924 
	C176.081680,442.027924 176.013489,442.013458 176.298706,441.997589 
	C176.750168,441.662994 176.916382,441.344238 177.082611,441.025513 
	C177.082611,441.025513 177.013718,441.013733 177.297607,440.998474 
	C177.748199,440.664948 177.914902,440.346649 178.081573,440.028351 
	C178.081573,440.028351 178.013397,440.013428 178.298645,439.997620 
	C178.750046,439.663239 178.916183,439.344666 179.082336,439.026093 
	C179.082336,439.026093 179.013657,439.013550 179.298050,438.998108 
	C179.748795,438.664185 179.915146,438.345734 180.081497,438.027283 
	C180.081497,438.027283 180.013245,438.013397 180.298019,437.997894 
	C180.749115,437.663879 180.915421,437.345337 181.081726,437.026794 
	C181.081726,437.026794 181.013336,437.013275 181.298462,436.997589 
	C181.749680,436.662781 181.915787,436.343658 182.081909,436.024536 
	C182.081909,436.024536 182.013199,436.013153 182.297791,435.997833 
	C182.749023,435.662964 182.915665,435.343384 183.082306,435.023804 
	C183.082291,435.023804 183.013855,435.011749 183.370987,434.929993 
	C183.784302,434.374023 183.840485,433.899780 183.896683,433.425537 
	C185.285889,432.073608 186.675110,430.721680 188.610809,429.177673 
	C189.464355,428.668427 189.771439,428.351257 190.078522,428.034088 
	C190.078537,428.034088 190.011688,428.013641 190.297302,427.998047 
	C190.749237,427.663971 190.915573,427.345459 191.081909,427.026947 
	C191.081909,427.026947 191.013474,427.013489 191.298187,426.997986 
	C191.749252,426.663940 191.915604,426.345428 192.081955,426.026917 
	C192.081955,426.026917 192.013474,426.013489 192.298157,425.997986 
	C192.749222,425.663940 192.915588,425.345459 193.081940,425.026947 
	C193.081955,425.026947 193.013474,425.013641 193.297699,424.998352 
	C193.748352,424.665039 193.914764,424.347046 194.081177,424.029053 
	C194.081192,424.029053 194.013199,424.013214 194.298370,423.997681 
	C194.749435,423.664429 194.915329,423.346680 195.081238,423.028931 
	C195.081238,423.028931 195.013153,423.013367 195.297409,422.998352 
	C195.747543,422.666718 195.913437,422.350067 196.079330,422.033417 
	C196.079330,422.033417 196.012054,422.012207 196.298721,421.996704 
	C196.750366,421.664551 196.915359,421.347870 197.080338,421.031219 
	C197.080338,421.031219 197.012726,421.012726 197.298523,420.997253 
	C197.749634,420.664978 197.914963,420.348175 198.080292,420.031342 
	C198.080292,420.031342 198.012665,420.012512 198.298965,419.996826 
	C198.750549,419.663910 198.915833,419.346649 199.081116,419.029388 
	C199.081116,419.029388 199.013184,419.013153 199.298462,418.997620 
	C199.749481,418.664581 199.915237,418.347107 200.080994,418.029602 
	C200.081009,418.029602 200.013123,418.013123 200.298431,417.997620 
	C200.749481,417.664642 200.915207,417.347168 201.080948,417.029724 
	C201.080948,417.029724 201.013077,417.013031 201.298431,416.997559 
	C201.749466,416.664673 201.915146,416.347321 202.080841,416.029968 
	C202.080841,416.029968 202.013000,416.012939 202.298889,415.997192 
	C202.750473,415.663422 202.916168,415.345428 203.081848,415.027405 
	C203.081848,415.027405 203.013443,415.013611 203.297394,414.998535 
	C203.747543,414.666351 203.913727,414.349213 204.079895,414.032074 
	C204.079895,414.032074 204.012436,414.012573 204.298584,413.997070 
	C204.750015,413.664581 204.915268,413.347626 205.080505,413.030670 
	C205.080505,413.030670 205.012833,413.012817 205.298065,412.997620 
	C205.748672,412.666046 205.914047,412.349670 206.079407,412.033295 
	C206.079407,412.033295 206.012054,412.011841 206.299683,411.995911 
	C206.752228,411.662323 206.917130,411.344666 207.082031,411.026978 
	C207.082031,411.026978 207.013611,411.013489 207.297913,410.998230 
	C207.748413,410.665344 207.914597,410.347748 208.080780,410.030151 
	C208.080765,410.030151 208.012985,410.013000 208.298447,409.997498 
	C208.749557,409.664673 208.915207,409.347321 209.080856,409.029968 
	C209.080856,409.029968 209.013031,409.013031 209.298431,408.997528 
	C209.749496,408.664703 209.915146,408.347382 210.080811,408.030060 
	C210.080811,408.030060 210.013016,408.013092 210.298370,407.997620 
	C210.749420,407.664764 210.915131,407.347412 211.080841,407.030060 
	C211.080826,407.030060 211.013031,407.013000 211.298401,406.997559 
	C211.749374,406.664917 211.914978,406.347778 212.080597,406.030609 
	C212.080597,406.030609 212.012894,406.012939 212.298370,405.997498 
	C212.749390,405.664978 212.914932,405.347931 213.080475,405.030884 
	C213.080475,405.030884 213.012802,405.012787 213.298492,404.997314 
	C213.749573,404.664948 213.914978,404.348022 214.080383,404.031097 
	C214.080383,404.031097 214.012772,404.012665 214.299255,403.996765 
	C214.751175,403.662903 214.916611,403.344940 215.082047,403.026978 
	C215.082047,403.026978 215.013596,403.013428 215.298401,402.997864 
	C215.749405,402.664032 215.915619,402.345764 216.081818,402.027466 
	C216.081818,402.027466 216.013504,402.013489 216.298416,401.997864 
	C216.749573,401.663727 216.915817,401.345245 217.082062,401.026764 
	C217.082077,401.026764 217.013580,401.013550 217.298248,400.997986 
	C217.749313,400.663818 217.915710,400.345215 218.082108,400.026611 
	C218.082123,400.026611 218.013565,400.013580 218.298157,399.998047 
	C218.749252,399.663788 218.915741,399.345062 219.082214,399.026337 
	C219.082214,399.026337 219.013550,399.013641 219.297333,398.998596 
	C219.747543,398.666016 219.913971,398.348480 220.080383,398.030914 
	C220.080383,398.030914 220.012756,398.012726 220.299438,397.996643 
	C220.751602,397.661957 220.917084,397.343292 221.082550,397.024658 
	C221.082550,397.024658 221.013596,397.013519 221.297897,396.998138 
	C221.748962,396.663452 221.915726,396.344116 222.082489,396.024811 
	C222.082489,396.024811 222.013535,396.013519 222.297852,395.998138 
	C222.748947,395.663422 222.915726,395.344116 223.082504,395.024780 
	C223.082504,395.024780 223.013672,395.013306 223.300995,394.995972 
	C223.751144,394.654083 223.914001,394.329559 224.076843,394.005035 
	C224.076859,394.005035 223.997223,394.004211 224.217178,393.951599 
	C224.783600,393.730286 224.901932,393.461212 224.792130,393.091705 
z"/>
<path fill="#000000" opacity="1.000000" stroke="none" 
	d="
M93.809204,43.983929 
	C95.783615,38.238831 98.156525,32.872646 106.013794,31.782511 
	C108.232567,31.393740 109.665962,31.025377 111.099480,31.024963 
	C204.319702,30.998024 297.539948,30.996462 390.760162,31.034700 
	C392.518341,31.035421 394.276337,31.538624 396.034424,31.807381 
	C402.979462,33.089848 406.232727,37.951908 408.040344,45.045956 
	C408.018036,184.625610 408.009430,323.362335 407.992279,462.099030 
	C407.992065,463.757507 407.881073,465.416016 407.821777,467.074493 
	C403.619324,473.164703 400.161469,473.638367 394.790466,468.244293 
	C369.779266,443.125580 344.930176,417.845428 319.901611,392.744110 
	C308.118286,380.926636 296.623657,368.723358 283.959351,357.911774 
	C272.861237,348.437286 259.549500,344.514709 244.356171,346.686218 
	C229.301590,348.837891 217.728943,356.192688 207.654053,366.858826 
	C204.910980,369.762878 202.019684,372.526978 198.753235,375.687744 
	C197.854691,376.325378 197.399307,376.630615 196.943909,376.935852 
	C196.943909,376.935852 197.003174,376.989258 196.713577,377.007996 
	C196.255356,377.340118 196.086731,377.653473 195.918106,377.966858 
	C195.918106,377.966858 195.986313,377.986053 195.704041,378.007050 
	C195.253723,378.341339 195.085678,378.654633 194.917633,378.967896 
	C194.917618,378.967896 194.985992,378.985962 194.703979,379.006958 
	C194.253830,379.341248 194.085709,379.654602 193.917572,379.967957 
	C193.917587,379.967957 193.990387,380.003571 193.640427,380.063843 
	C189.156937,384.751617 185.023422,389.379181 180.889893,394.006714 
	C179.575439,395.218903 178.260986,396.431061 176.722229,397.969391 
	C176.497940,398.295532 176.299332,398.484070 176.299347,398.484070 
	C169.943054,404.771149 163.586761,411.058197 156.787735,417.680450 
	C155.878143,418.322174 155.411270,418.628693 154.944412,418.935211 
	C154.944412,418.935211 155.003159,418.990631 154.712555,419.008575 
	C154.254120,419.339874 154.086304,419.653198 153.918488,419.966522 
	C153.918472,419.966522 153.986588,419.987000 153.702682,420.007721 
	C153.251343,420.342651 153.083923,420.656830 152.916504,420.971008 
	C152.916489,420.971008 152.985291,420.985718 152.703598,421.006165 
	C152.253586,421.341095 152.085266,421.655609 151.916946,421.970093 
	C151.916946,421.970093 151.985596,421.985535 151.703705,422.006104 
	C151.253418,422.341400 151.085007,422.656128 150.916595,422.970856 
	C150.916611,422.970856 150.988007,422.998566 150.642136,423.058167 
	C146.830170,427.080170 143.364075,431.042572 139.897949,435.004944 
	C139.247711,435.555298 138.597473,436.105652 137.649216,437.056824 
	C136.995621,437.828430 136.640030,438.199188 136.284454,438.569946 
	C135.847610,438.914368 135.410782,439.258820 134.716064,439.966370 
	C134.458191,440.329529 134.378357,440.393616 134.378357,440.393616 
	C128.331268,446.383606 122.284180,452.373627 115.792290,458.689209 
	C114.880417,459.321075 114.413353,459.627441 113.946281,459.933777 
	C113.946281,459.933777 114.003212,459.993164 113.710388,460.009094 
	C113.251244,460.339355 113.084930,460.653656 112.918610,460.967987 
	C112.918617,460.967987 112.986588,460.986694 112.702850,461.005432 
	C112.252312,461.338715 112.085510,461.653259 111.918716,461.967834 
	C111.918716,461.967834 111.986687,461.986786 111.702873,462.005493 
	C111.252296,462.338715 111.085533,462.653229 110.918770,462.967743 
	C110.918770,462.967743 110.990372,462.999390 110.644936,463.054932 
	C108.508911,465.059052 106.718315,467.007599 104.927727,468.956177 
	C104.927727,468.956177 104.992531,468.984100 104.712486,469.014893 
	C104.260185,469.361572 104.087921,469.677429 103.915657,469.993286 
	C103.915649,469.993286 104.005066,470.001068 103.684143,470.007843 
	C102.899094,470.333008 102.434975,470.651398 101.970856,470.969818 
	C98.593079,471.904633 95.696724,471.669037 94.122192,467.059265 
	C93.968956,465.475098 93.997437,464.642273 93.997452,463.809448 
	C93.999519,325.362823 94.000153,186.916199 93.991791,48.469585 
	C93.991699,46.974361 93.872696,45.479149 93.809204,43.983929 
z"/>
<path fill="#FFAFA6" opacity="1.000000" stroke="none" 
	d="
M63.532314,470.176605 
	C63.112198,467.646118 63.007561,464.819336 63.007416,461.992523 
	C63.000450,324.055481 63.001488,186.118408 63.015362,48.181362 
	C63.015526,46.529510 63.193851,44.877674 63.693127,43.012100 
	C64.101105,181.679779 64.106506,320.561188 64.099945,459.442596 
	C64.099777,462.921814 63.967304,466.401062 63.532314,470.176605 
z"/>
<path fill="#FFAF9E" opacity="1.000000" stroke="none" 
	d="
M437.904541,42.371964 
	C438.334229,43.398468 438.967682,44.892704 438.968109,46.387127 
	C439.009094,186.705887 439.001801,327.024658 438.898560,467.835815 
	C438.495941,466.769165 437.927063,465.210205 437.926636,463.651123 
	C437.888092,326.545380 437.893829,189.439606 437.892029,52.333847 
	C437.891998,49.169159 437.840393,46.004475 437.904541,42.371964 
z"/>
<path fill="#FFD1CB" opacity="1.000000" stroke="none" 
	d="
M93.488464,44.263439 
	C93.872696,45.479149 93.991699,46.974361 93.991791,48.469585 
	C94.000153,186.916199 93.999519,325.362823 93.997452,463.809448 
	C93.997437,464.642273 93.968956,465.475098 93.899399,466.805481 
	C93.528236,465.562378 92.934662,463.821747 92.934090,462.080963 
	C92.888695,324.392883 92.888840,186.704819 92.898857,49.016754 
	C92.898972,47.525478 93.074226,46.034218 93.488464,44.263439 
z"/>
<path fill="#FFD2C6" opacity="1.000000" stroke="none" 
	d="
M408.207764,466.854919 
	C407.881073,465.416016 407.992065,463.757507 407.992279,462.099030 
	C408.009430,323.362335 408.018036,184.625610 408.109009,45.419670 
	C408.500122,46.504185 409.079956,48.057861 409.080383,49.611694 
	C409.117706,186.815796 409.112396,324.019928 409.085022,461.224030 
	C409.084656,463.027832 408.764618,464.831543 408.207764,466.854919 
z"/>
<path fill="#FFBCAD" opacity="1.000000" stroke="none" 
	d="
M395.909790,31.427795 
	C394.276337,31.538624 392.518341,31.035421 390.760162,31.034700 
	C297.539948,30.996462 204.319702,30.998024 111.099480,31.024963 
	C109.665962,31.025377 108.232567,31.393740 106.390587,31.711676 
	C106.988617,31.210897 107.944466,30.183870 109.012169,30.050190 
	C111.308723,29.762650 113.662880,29.921213 115.993454,29.921230 
	C207.224228,29.921860 298.455017,29.917946 389.685760,29.974947 
	C391.719147,29.976217 393.752045,30.674864 395.909790,31.427795 
z"/>
<path fill="#FFE0D9" opacity="1.000000" stroke="none" 
	d="
M181.232422,393.971924 
	C185.023422,389.379181 189.156937,384.751617 193.612717,380.034332 
	C193.561325,380.931549 193.445679,382.169037 192.771103,382.863800 
	C189.115295,386.628937 185.321320,390.259918 181.232422,393.971924 
z"/>
<path fill="#FFDFD8" opacity="1.000000" stroke="none" 
	d="
M140.238846,434.963928 
	C143.364075,431.042572 146.830170,427.080170 150.619370,423.027374 
	C149.268860,425.234741 147.724838,427.643463 145.882294,429.796692 
	C144.291046,431.656250 142.360367,433.225342 140.238846,434.963928 
z"/>
<path fill="#FFDBD4" opacity="1.000000" stroke="none" 
	d="
M105.236664,469.203430 
	C106.718315,467.007599 108.508911,465.059052 110.620247,463.024567 
	C109.142525,465.109344 107.344063,467.279999 105.236664,469.203430 
z"/>
<path fill="#FFDFD8" opacity="1.000000" stroke="none" 
	d="
M136.402420,438.413696 
	C136.640030,438.199188 136.995621,437.828430 137.516830,437.356079 
	C137.295090,437.588806 136.907730,437.923126 136.402420,438.413696 
z"/>
<path fill="#FFDBD4" opacity="1.000000" stroke="none" 
	d="
M102.320892,471.007751 
	C102.434975,470.651398 102.899094,470.333008 103.688469,469.963165 
	C103.566124,470.289703 103.118530,470.667664 102.320892,471.007751 
z"/>
<path fill="#FFDBD4" opacity="1.000000" stroke="none" 
	d="
M114.176498,460.264160 
	C114.413353,459.627441 114.880417,459.321075 115.674011,459.001862 
	C115.469269,459.524170 114.937996,460.059357 114.176498,460.264160 
z"/>
<path fill="#FED3CE" opacity="1.000000" stroke="none" 
	d="
M164.826080,452.766602 
	C164.606720,453.369812 164.159500,453.674713 163.393921,453.967041 
	C163.583115,453.459045 164.090652,452.963684 164.826080,452.766602 
z"/>
<path fill="#FFDFD8" opacity="1.000000" stroke="none" 
	d="
M134.453278,440.523254 
	C134.378357,440.393616 134.458191,440.329529 134.480667,440.314667 
	C134.511490,440.417480 134.519836,440.535187 134.453278,440.523254 
z"/>
<path fill="#FFDFD8" opacity="1.000000" stroke="none" 
	d="
M155.177246,419.268494 
	C155.411270,418.628693 155.878143,418.322174 156.670135,417.992859 
	C156.466858,418.513947 155.938477,419.057861 155.177246,419.268494 
z"/>
<path fill="#FFE0D9" opacity="1.000000" stroke="none" 
	d="
M176.356201,398.577423 
	C176.299332,398.484070 176.497940,398.295532 176.562454,398.275208 
	C176.402649,398.621246 176.331360,398.759888 176.356201,398.577423 
z"/>
<path fill="#FFE0D9" opacity="1.000000" stroke="none" 
	d="
M197.172150,377.265564 
	C197.399307,376.630615 197.854691,376.325378 198.629395,376.000244 
	C198.432602,376.518707 197.916489,377.057007 197.172150,377.265564 
z"/>
<path fill="#FED3CE" opacity="1.000000" stroke="none" 
	d="
M174.699493,442.892242 
	C174.916245,443.345245 174.750504,443.663269 174.307434,444.031067 
	C174.125748,443.639648 174.221375,443.198456 174.699493,442.892242 
z"/>
<path fill="#FFD2CD" opacity="1.000000" stroke="none" 
	d="
M192.703979,424.892822 
	C192.915588,425.345459 192.749222,425.663940 192.304901,426.032196 
	C192.126648,425.640869 192.226349,425.199799 192.703979,424.892822 
z"/>
<path fill="#FED3CE" opacity="1.000000" stroke="none" 
	d="
M175.702057,441.889191 
	C175.915512,442.346039 175.749344,442.664154 175.305527,443.031982 
	C175.126083,442.637939 175.224258,442.194214 175.702057,441.889191 
z"/>
<path fill="#FED3CE" opacity="1.000000" stroke="none" 
	d="
M176.703278,440.897522 
	C176.916382,441.344238 176.750168,441.662994 176.306000,442.031677 
	C176.126694,441.644257 176.225327,441.206909 176.703278,440.897522 
z"/>
<path fill="#FED3CE" opacity="1.000000" stroke="none" 
	d="
M177.705734,439.888824 
	C177.914902,440.346649 177.748199,440.664948 177.303497,441.032898 
	C177.126953,440.638184 177.228409,440.193726 177.705734,439.888824 
z"/>
<path fill="#FFD2CD" opacity="1.000000" stroke="none" 
	d="
M224.555588,393.172974 
	C224.901932,393.461212 224.783600,393.730286 224.216949,393.991425 
	C224.104202,393.807312 224.211624,393.530762 224.555588,393.172974 
z"/>
<path fill="#FED3CE" opacity="1.000000" stroke="none" 
	d="
M178.702759,438.895355 
	C178.916183,439.344666 178.750046,439.663239 178.306061,440.031738 
	C178.126556,439.642639 178.224869,439.203613 178.702759,438.895355 
z"/>
<path fill="#FED3CE" opacity="1.000000" stroke="none" 
	d="
M179.703705,437.889099 
	C179.915146,438.345734 179.748795,438.664185 179.304474,439.032410 
	C179.126297,438.638397 179.226105,438.194672 179.703705,437.889099 
z"/>
<path fill="#FED3CE" opacity="1.000000" stroke="none" 
	d="
M180.703369,436.891663 
	C180.915421,437.345337 180.749115,437.663879 180.304794,438.032043 
	C180.126190,437.639984 180.225601,437.198273 180.703369,436.891663 
z"/>
<path fill="#FFD2CD" opacity="1.000000" stroke="none" 
	d="
M223.699799,393.897217 
	C223.914001,394.329559 223.751144,394.654083 223.307190,395.030304 
	C223.124969,394.651123 223.223862,394.220276 223.699799,393.897217 
z"/>
<path fill="#FED3CE" opacity="1.000000" stroke="none" 
	d="
M181.703491,435.896179 
	C181.915787,436.343658 181.749680,436.662781 181.305283,437.031769 
	C181.126358,436.643707 181.225723,436.205780 181.703491,435.896179 
z"/>
<path fill="#FED3CE" opacity="1.000000" stroke="none" 
	d="
M182.706604,434.899719 
	C182.915665,435.343384 182.749023,435.662964 182.303528,436.032166 
	C182.126740,435.646423 182.228806,435.211029 182.706604,434.899719 
z"/>
<path fill="#FED3CE" opacity="1.000000" stroke="none" 
	d="
M183.531494,433.573853 
	C183.840485,433.899780 183.784302,434.374023 183.379761,434.963623 
	C183.076370,434.626709 183.121323,434.174438 183.531494,433.573853 
z"/>
<path fill="#FFD2CD" opacity="1.000000" stroke="none" 
	d="
M189.716675,427.862854 
	C189.771439,428.351257 189.464355,428.668427 188.789856,428.948242 
	C188.733231,428.504456 189.044022,428.098022 189.716675,427.862854 
z"/>
<path fill="#FFD2CD" opacity="1.000000" stroke="none" 
	d="
M190.703949,426.892609 
	C190.915573,427.345459 190.749237,427.663971 190.304901,428.032166 
	C190.126602,427.640686 190.226273,427.199463 190.703949,426.892609 
z"/>
<path fill="#FFD2CD" opacity="1.000000" stroke="none" 
	d="
M191.703995,425.892822 
	C191.915604,426.345428 191.749252,426.663940 191.304932,427.032166 
	C191.126648,426.640839 191.226334,426.199799 191.703995,425.892822 
z"/>
<path fill="#FFD2CD" opacity="1.000000" stroke="none" 
	d="
M193.704010,423.886505 
	C193.914764,424.347046 193.748352,424.665039 193.304184,425.032623 
	C193.126587,424.636108 193.226730,424.190033 193.704010,423.886505 
z"/>
<path fill="#FED3CE" opacity="1.000000" stroke="none" 
	d="
M173.697769,443.881165 
	C173.915146,444.347443 173.749481,444.664703 173.306885,445.031433 
	C173.124878,444.631317 173.219788,444.181732 173.697769,443.881165 
z"/>
<path fill="#FED3CE" opacity="1.000000" stroke="none" 
	d="
M172.699448,444.883789 
	C172.915192,445.347137 172.749359,445.664642 172.306427,446.031647 
	C172.125519,445.633423 172.221695,445.185638 172.699448,444.883789 
z"/>
<path fill="#FED3CE" opacity="1.000000" stroke="none" 
	d="
M171.699814,445.884766 
	C171.915268,446.346954 171.749390,446.664551 171.306335,447.031677 
	C171.125595,446.634186 171.222046,446.187164 171.699814,445.884766 
z"/>
<path fill="#FED3CE" opacity="1.000000" stroke="none" 
	d="
M170.699997,446.885254 
	C170.915298,447.346863 170.749405,447.664490 170.306290,448.031677 
	C170.125656,447.634583 170.222229,447.187927 170.699997,446.885254 
z"/>
<path fill="#FED3CE" opacity="1.000000" stroke="none" 
	d="
M169.700104,447.885376 
	C169.915314,448.346832 169.749405,448.664459 169.306259,449.031708 
	C169.125671,448.634735 169.222321,448.188171 169.700104,447.885376 
z"/>
<path fill="#FED3CE" opacity="1.000000" stroke="none" 
	d="
M168.698959,448.885986 
	C168.915573,449.346527 168.749817,449.664154 168.306961,450.031372 
	C168.125443,449.635010 168.221008,449.189026 168.698959,448.885986 
z"/>
<path fill="#FED3CE" opacity="1.000000" stroke="none" 
	d="
M167.699356,449.883362 
	C167.915176,450.347229 167.749329,450.664673 167.306412,451.031677 
	C167.125443,450.633118 167.221573,450.184998 167.699356,449.883362 
z"/>
<path fill="#FED3CE" opacity="1.000000" stroke="none" 
	d="
M166.689758,450.884644 
	C166.916763,451.345886 166.752121,451.662842 166.311340,452.029236 
	C166.122833,451.632538 166.210464,451.186493 166.689758,450.884644 
z"/>
<path fill="#FED3CE" opacity="1.000000" stroke="none" 
	d="
M165.694489,451.864685 
	C165.913513,452.350739 165.748215,452.666656 165.306824,453.031586 
	C165.123886,452.618561 165.217026,452.156586 165.694489,451.864685 
z"/>
<path fill="#FFE0D9" opacity="1.000000" stroke="none" 
	d="
M194.322266,380.166443 
	C194.085709,379.654602 194.253830,379.341248 194.694946,378.972778 
	C194.887619,379.400024 194.807297,379.882477 194.322266,380.166443 
z"/>
<path fill="#FFE0D9" opacity="1.000000" stroke="none" 
	d="
M195.323166,379.166992 
	C195.085678,378.654633 195.253723,378.341339 195.694656,377.972900 
	C195.887924,378.400513 195.808304,378.883270 195.323166,379.166992 
z"/>
<path fill="#FFDBD4" opacity="1.000000" stroke="none" 
	d="
M113.322060,461.152435 
	C113.084930,460.653656 113.251244,460.339355 113.691406,459.972473 
	C113.885338,460.392242 113.805420,460.864563 113.322060,461.152435 
z"/>
<path fill="#FFDBD4" opacity="1.000000" stroke="none" 
	d="
M112.317368,462.152100 
	C112.085510,461.653259 112.252312,461.338715 112.693359,460.971466 
	C112.883743,461.391327 112.799881,461.863861 112.317368,462.152100 
z"/>
<path fill="#FFDBD4" opacity="1.000000" stroke="none" 
	d="
M111.318069,463.153320 
	C111.085533,462.653229 111.252296,462.338715 111.693268,461.971558 
	C111.884102,462.392212 111.800728,462.865540 111.318069,463.153320 
z"/>
<path fill="#FFE0D9" opacity="1.000000" stroke="none" 
	d="
M196.317230,378.170044 
	C196.086731,377.653473 196.255356,377.340118 196.697296,376.971558 
	C196.885880,377.401978 196.801117,377.887604 196.317230,378.170044 
z"/>
<path fill="#FFDBD4" opacity="1.000000" stroke="none" 
	d="
M104.293839,470.082886 
	C104.087921,469.677429 104.260185,469.361572 104.705246,468.980347 
	C104.876030,469.334198 104.774017,469.753326 104.293839,470.082886 
z"/>
<path fill="#FFD2CD" opacity="1.000000" stroke="none" 
	d="
M212.697525,404.880127 
	C212.914932,405.347931 212.749390,405.664978 212.307098,406.031372 
	C212.125076,405.630280 212.219833,405.179810 212.697525,404.880127 
z"/>
<path fill="#FFD2CD" opacity="1.000000" stroke="none" 
	d="
M204.695312,412.880005 
	C204.915268,413.347626 204.750015,413.664581 204.308182,414.030823 
	C204.124451,413.629883 204.217270,413.179596 204.695312,412.880005 
z"/>
<path fill="#FFD2CD" opacity="1.000000" stroke="none" 
	d="
M205.695648,411.870972 
	C205.914047,412.349670 205.748672,412.666046 205.306946,413.031494 
	C205.124359,412.623230 205.218124,412.165924 205.695648,411.870972 
z"/>
<path fill="#FFD2CD" opacity="1.000000" stroke="none" 
	d="
M206.693283,410.892303 
	C206.917130,411.344666 206.752228,411.662323 206.310638,412.029541 
	C206.124130,411.638580 206.214325,411.198120 206.693283,410.892303 
z"/>
<path fill="#FFD2CD" opacity="1.000000" stroke="none" 
	d="
M207.702271,409.882965 
	C207.914597,410.347748 207.748413,410.665344 207.304810,411.032410 
	C207.126190,410.633148 207.224976,410.184479 207.702271,409.882965 
z"/>
<path fill="#FFD2CD" opacity="1.000000" stroke="none" 
	d="
M208.698273,408.882812 
	C208.915207,409.347321 208.749557,409.664673 208.306946,410.031433 
	C208.125214,409.632446 208.220459,409.184021 208.698273,408.882812 
z"/>
<path fill="#FFD2CD" opacity="1.000000" stroke="none" 
	d="
M209.698273,407.882446 
	C209.915146,408.347382 209.749496,408.664703 209.306900,409.031433 
	C209.125214,408.632202 209.220474,408.183502 209.698273,407.882446 
z"/>
<path fill="#FFD2CD" opacity="1.000000" stroke="none" 
	d="
M210.698898,406.883057 
	C210.915131,407.347412 210.749420,407.664764 210.306717,408.031555 
	C210.125473,407.632660 210.221222,407.184387 210.698898,406.883057 
z"/>
<path fill="#FFD2CD" opacity="1.000000" stroke="none" 
	d="
M211.697937,405.880981 
	C211.914978,406.347778 211.749374,406.664917 211.306946,407.031433 
	C211.125168,406.630981 211.220230,406.181183 211.697937,405.880981 
z"/>
<path fill="#FFD2CD" opacity="1.000000" stroke="none" 
	d="
M203.702255,413.876678 
	C203.913727,414.349213 203.747543,414.666351 203.304153,415.032776 
	C203.126160,414.628479 203.225372,414.174866 203.702255,413.876678 
z"/>
<path fill="#FFD2CD" opacity="1.000000" stroke="none" 
	d="
M213.696289,403.878845 
	C213.914978,404.348022 213.749573,404.664948 213.307526,405.031189 
	C213.124664,404.629181 213.218445,404.177887 213.696289,403.878845 
z"/>
<path fill="#FFD2CD" opacity="1.000000" stroke="none" 
	d="
M214.697632,402.893188 
	C214.916611,403.344940 214.751175,403.662903 214.308624,404.030518 
	C214.125397,403.639923 214.219299,403.199677 214.697632,402.893188 
z"/>
<path fill="#FFD2CD" opacity="1.000000" stroke="none" 
	d="
M215.703186,401.891815 
	C215.915619,402.345764 215.749405,402.664032 215.305450,403.032043 
	C215.126633,402.639893 215.225571,402.198029 215.703186,401.891815 
z"/>
<path fill="#FFD2CD" opacity="1.000000" stroke="none" 
	d="
M216.703522,400.894043 
	C216.915817,401.345245 216.749573,401.663727 216.305466,402.031982 
	C216.126724,401.641602 216.225845,401.201447 216.703522,400.894043 
z"/>
<path fill="#FFD2CD" opacity="1.000000" stroke="none" 
	d="
M217.704712,399.894714 
	C217.915710,400.345215 217.749313,400.663818 217.304901,401.032227 
	C217.127029,400.642273 217.227173,400.202545 217.704712,399.894714 
z"/>
<path fill="#FFD2CD" opacity="1.000000" stroke="none" 
	d="
M218.705490,398.895752 
	C218.915741,399.345062 218.749252,399.663788 218.304626,400.032349 
	C218.127243,399.643158 218.227997,399.204132 218.705490,398.895752 
z"/>
<path fill="#FFD2CD" opacity="1.000000" stroke="none" 
	d="
M219.703735,397.880066 
	C219.913971,398.348480 219.747543,398.666016 219.303574,399.032959 
	C219.126373,398.631287 219.226730,398.180267 219.703735,397.880066 
z"/>
<path fill="#FFD2CD" opacity="1.000000" stroke="none" 
	d="
M220.699051,396.899200 
	C220.917084,397.343292 220.751602,397.661957 220.308533,398.030457 
	C220.125824,397.644806 220.220688,397.209290 220.699051,396.899200 
z"/>
<path fill="#FFD2CD" opacity="1.000000" stroke="none" 
	d="
M202.699432,414.891663 
	C202.916168,415.345428 202.750473,415.663422 202.307449,416.031097 
	C202.125748,415.639160 202.221375,415.197540 202.699432,414.891663 
z"/>
<path fill="#FFD2CD" opacity="1.000000" stroke="none" 
	d="
M201.698456,415.882812 
	C201.915146,416.347321 201.749466,416.664673 201.306824,417.031494 
	C201.125244,416.632507 201.220673,416.184082 201.698456,415.882812 
z"/>
<path fill="#FFD2CD" opacity="1.000000" stroke="none" 
	d="
M200.699066,416.883850 
	C200.915207,417.347168 200.749481,417.664642 200.306671,418.031555 
	C200.125458,417.633331 200.221313,417.185638 200.699066,416.883850 
z"/>
<path fill="#FFD2CD" opacity="1.000000" stroke="none" 
	d="
M221.708191,395.900330 
	C221.915726,396.344116 221.748962,396.663452 221.303528,397.032593 
	C221.127884,396.646912 221.230896,396.211395 221.708191,395.900330 
z"/>
<path fill="#FFD2CD" opacity="1.000000" stroke="none" 
	d="
M199.699265,417.884369 
	C199.915237,418.347107 199.749481,418.664581 199.306641,419.031555 
	C199.125549,418.633759 199.221542,418.186432 199.699265,417.884369 
z"/>
<path fill="#FFDFD8" opacity="1.000000" stroke="none" 
	d="
M154.320343,420.167603 
	C154.086304,419.653198 154.254120,419.339874 154.695114,418.972107 
	C154.886246,419.401367 154.804214,419.885040 154.320343,420.167603 
z"/>
<path fill="#FFD2CD" opacity="1.000000" stroke="none" 
	d="
M198.695496,418.884369 
	C198.915833,419.346649 198.750549,419.663910 198.308563,420.030609 
	C198.124527,419.633148 198.217209,419.186249 198.695496,418.884369 
z"/>
<path fill="#FFDFD8" opacity="1.000000" stroke="none" 
	d="
M153.325256,421.151184 
	C153.083923,420.656830 153.251343,420.342651 153.692062,419.973785 
	C153.888229,420.389862 153.811127,420.860626 153.325256,421.151184 
z"/>
<path fill="#FFD2CD" opacity="1.000000" stroke="none" 
	d="
M197.695770,419.878296 
	C197.914963,420.348175 197.749634,420.664978 197.307785,421.031067 
	C197.124588,420.628632 197.217926,420.176910 197.695770,419.878296 
z"/>
<path fill="#FFDFD8" opacity="1.000000" stroke="none" 
	d="
M152.316345,422.153503 
	C152.085266,421.655609 152.253586,421.341095 152.695923,420.971802 
	C152.885223,421.390320 152.800491,421.863617 152.316345,422.153503 
z"/>
<path fill="#FFD2CD" opacity="1.000000" stroke="none" 
	d="
M196.692993,420.878052 
	C196.915359,421.347870 196.750366,421.664551 196.309143,422.030396 
	C196.123825,421.628021 196.214737,421.176453 196.692993,420.878052 
z"/>
<path fill="#FFDFD8" opacity="1.000000" stroke="none" 
	d="
M151.315277,423.149780 
	C151.085007,422.656128 151.253418,422.341400 151.696014,421.971771 
	C151.884796,422.387482 151.799393,422.858124 151.315277,423.149780 
z"/>
<path fill="#FFD2CD" opacity="1.000000" stroke="none" 
	d="
M195.699738,421.871277 
	C195.913437,422.350067 195.747543,422.666718 195.304871,423.032471 
	C195.125443,422.624115 195.222794,422.166626 195.699738,421.871277 
z"/>
<path fill="#FFD2CD" opacity="1.000000" stroke="none" 
	d="
M222.708252,394.900421 
	C222.915726,395.344116 222.748947,395.663422 222.303513,396.032623 
	C222.127899,395.647003 222.230957,395.211548 222.708252,394.900421 
z"/>
<path fill="#FFD2CD" opacity="1.000000" stroke="none" 
	d="
M194.700226,422.886169 
	C194.915329,423.346680 194.749435,423.664429 194.306213,424.031708 
	C194.125687,423.635315 194.222473,423.189362 194.700226,422.886169 
z"/>
</svg>